#!OML:ASF H:\LiuWeirdWalks\Patient Classification 1\Patient 1\Session 1\male.ASF
:FULLY-SPECIFIED
:DEGREES
296
root 1.94624 18.0911 -22.2416 3.16678 5.99764 -15.3048
lowerback 15.317 -1.33664 -9.15027
upperback 4.33019 -3.41515 -6.3048
thorax -3.814 -1.62686 -0.909358
lowerneck -16.9929 1.53758 6.82995
upperneck 17.4178 -1.90304 10.7788
head 8.3915 0.674316 2.28778
rclavicle -3.97569e-014 -9.22361e-014
rhumerus -26.4125 -24.7706 4.417
rradius 29.1007
rwrist 7.88389
rhand -25.5023 -11.4886
rfingers 7.12502
rthumb 1.02641 -41.4659
lclavicle -3.97569e-014 -9.22361e-014
lhumerus -19.8619 33.0687 36.839
lradius 28.5489
lwrist 5.30694
lhand -21.4452 0.251166
lfingers 7.12502
lthumb 4.94447 30.1735
rfemur -16.9189 -6.48041 18.8343
rtibia 27.4138
rfoot -2.21069 -12.5906
rtoes -9.97741
lfemur -13.3289 2.06436 -3.07558
ltibia 32.6187
lfoot -16.1869 9.5351
ltoes -12.0902
297
root 1.95385 18.0896 -22.2076 3.14383 6.2735 -15.0271
lowerback 15.3479 -1.33356 -9.1428
upperback 4.32169 -3.40848 -6.18615
thorax -3.83295 -1.62255 -0.787395
lowerneck -17.0159 1.45823 6.76002
upperneck 17.3597 -1.97089 10.6861
head 8.37482 0.625494 2.25803
rclavicle -4.13472e-014 -3.18055e-014
rhumerus -26.6448 -24.507 4.08263
rradius 29.0765
rwrist 8.48554
rhand -25.868 -11.9904
rfingers 7.12502
rthumb 0.673238 -41.9691
lclavicle -4.13472e-014 -3.18055e-014
lhumerus -19.6799 33.0549 36.3081
lradius 28.6233
lwrist 5.49108
lhand -21.3865 0.186503
lfingers 7.12502
lthumb 5.00115 30.1075
rfemur -17.2082 -6.52205 18.5948
rtibia 27.5805
rfoot -2.22266 -12.7212
rtoes -9.98837
lfemur -13.3019 2.22334 -3.37641
ltibia 32.6457
lfoot -16.1805 9.13929
ltoes -12.3187
298
root 1.96112 18.0883 -22.1736 3.12629 6.57252 -14.7568
lowerback 15.372 -1.33381 -9.11651
upperback 4.32265 -3.40115 -6.06509
thorax -3.83913 -1.61862 -0.673727
lowerneck -17.102 1.40029 6.77066
upperneck 17.335 -2.03231 10.5483
head 8.38011 0.584521 2.20255
rclavicle 2.54444e-014 1.27222e-014
rhumerus -26.9133 -24.2561 3.74144
rradius 29.0788
rwrist 9.01973
rhand -26.2418 -12.554
rfingers 7.12502
rthumb 0.312224 -42.5336
lclavicle 2.54444e-014 1.27222e-014
lhumerus -19.4536 33.0607 35.8101
lradius 28.6704
lwrist 5.62269
lhand -21.3433 0.102744
lfingers 7.12502
lthumb 5.04286 30.0227
rfemur -17.4895 -6.56847 18.3636
rtibia 27.7515
rfoot -2.25991 -12.8759
rtoes -9.96693
lfemur -13.288 2.33986 -3.67346
ltibia 32.6725
lfoot -16.1565 8.79013
ltoes -12.5302
299
root 1.96835 18.0872 -22.1395 3.11367 6.88737 -14.4853
lowerback 15.3845 -1.33982 -9.08381
upperback 4.33378 -3.39725 -5.93615
thorax -3.82795 -1.61722 -0.555188
lowerneck -17.1986 1.34436 6.77844
upperneck 17.3026 -2.08859 10.4015
head 8.38417 0.544657 2.14501
rclavicle 9.54166e-015 8.26944e-014
rhumerus -27.1661 -24.0665 3.37891
rradius 29.0534
rwrist 9.69795
rhand -26.6589 -13.2074
rfingers 7.12502
rthumb -0.0906903 -43.1871
lclavicle 9.54166e-015 8.26944e-014
lhumerus -19.2087 33.0918 35.3477
lradius 28.6944
lwrist 5.70893
lhand -21.3352 0.00840393
lfingers 7.12502
lthumb 5.05065 29.9282
rfemur -17.7669 -6.6216 18.1311
rtibia 27.9249
rfoot -2.29039 -13.0383
rtoes -9.95193
lfemur -13.279 2.39792 -3.97966
ltibia 32.6963
lfoot -16.1208 8.50469
ltoes -12.7097
300
root 1.97573 18.0865 -22.1052 3.11177 7.22152 -14.2116
lowerback 15.3939 -1.34896 -9.03675
upperback 4.33916 -3.39553 -5.80776
thorax -3.82212 -1.61668 -0.444817
lowerneck -17.2518 1.27311 6.78275
upperneck 17.2396 -2.15508 10.248
head 8.3699 0.495866 2.08329
rclavicle -2.22639e-014 1.59028e-014
rhumerus -27.4454 -24.0699 3.09624
rradius 29.0831
rwrist 9.74149
rhand -26.803 -13.3791
rfingers 7.12502
rthumb -0.229785 -43.3588
lclavicle -2.22639e-014 1.59028e-014
lhumerus -18.9394 33.1015 34.9246
lradius 28.6975
lwrist 5.75932
lhand -21.3545 -0.0846188
lfingers 7.12502
lthumb 5.03208 29.8356
rfemur -18.0459 -6.68461 17.8968
rtibia 28.0984
rfoot -2.29311 -13.1963
rtoes -9.96599
lfemur -13.2779 2.38841 -4.29697
ltibia 32.7133
lfoot -16.0772 8.28766
ltoes -12.8652
301
root 1.98333 18.086 -22.0708 3.11117 7.56109 -13.9392
lowerback 15.3938 -1.3611 -8.98202
upperback 4.34921 -3.39449 -5.67152
thorax -3.80609 -1.61702 -0.33069
lowerneck -17.2944 1.19708 6.79006
upperneck 17.1731 -2.22208 10.0687
head 8.35175 0.443811 2.01213
rclavicle 9.54166e-015 4.13472e-014
rhumerus -27.7225 -24.1079 2.81396
rradius 29.1101
rwrist 9.77649
rhand -26.9333 -13.4417
rfingers 7.12502
rthumb -0.355698 -43.4211
lclavicle 9.54166e-015 4.13472e-014
lhumerus -18.6748 33.0875 34.5396
lradius 28.6969
lwrist 5.76104
lhand -21.4061 -0.138986
lfingers 7.12502
lthumb 4.9822 29.7824
rfemur -18.3161 -6.74246 17.661
rtibia 28.2714
rfoot -2.29753 -13.3521
rtoes -9.95484
lfemur -13.2676 2.31886 -4.62283
ltibia 32.7209
lfoot -16.0296 8.14673
ltoes -12.9897
302
root 1.99128 18.0854 -22.0358 3.11466 7.90176 -13.6603
lowerback 15.3825 -1.37669 -8.9239
upperback 4.36028 -3.39585 -5.53321
thorax -3.78284 -1.61888 -0.216298
lowerneck -17.3061 1.105 6.76994
upperneck 17.0719 -2.2945 9.87924
head 8.3158 0.383336 1.94031
rclavicle -5.40694e-014 -8.5875e-014
rhumerus -27.9987 -24.1567 2.52957
rradius 29.1448
rwrist 9.74575
rhand -27.0119 -13.4119
rfingers 7.12502
rthumb -0.431612 -43.3912
lclavicle -5.40694e-014 -8.5875e-014
lhumerus -18.4198 33.0542 34.1919
lradius 28.6978
lwrist 5.74715
lhand -21.4818 -0.159463
lfingers 7.12502
lthumb 4.90912 29.7637
rfemur -18.5839 -6.79801 17.4183
rtibia 28.4435
rfoot -2.29913 -13.503
rtoes -9.93654
lfemur -13.2461 2.21934 -4.96507
ltibia 32.7183
lfoot -15.9852 8.06425
ltoes -13.0547
303
root 1.99911 18.0846 -22.001 3.12693 8.23871 -13.3771
lowerback 15.3619 -1.39309 -8.86725
upperback 4.37475 -3.39679 -5.38874
thorax -3.75054 -1.621 -0.0951531
lowerneck -17.2974 1.01617 6.74687
upperneck 16.928 -2.34861 9.66019
head 8.26039 0.325288 1.86046
rclavicle -1.59028e-015 3.18055e-015
rhumerus -28.2796 -24.1733 2.22405
rradius 29.1811
rwrist 9.78363
rhand -27.1263 -13.3732
rfingers 7.12502
rthumb -0.542055 -43.3523
lclavicle -1.59028e-015 3.18055e-015
lhumerus -18.1703 33.0021 33.8926
lradius 28.7091
lwrist 5.75227
lhand -21.58 -0.117962
lfingers 7.12502
lthumb 4.81435 29.8073
rfemur -18.8611 -6.84997 17.1734
rtibia 28.6158
rfoot -2.28864 -13.6377
rtoes -9.95785
lfemur -13.2218 2.10649 -5.32056
ltibia 32.7054
lfoot -15.9372 8.03637
ltoes -13.0759
304
root 2.00702 18.0836 -21.9659 3.14009 8.56421 -13.0939
lowerback 15.334 -1.40823 -8.80759
upperback 4.38897 -3.39483 -5.24151
thorax -3.71471 -1.62191 0.0263838
lowerneck -17.26 0.919425 6.68955
upperneck 16.7751 -2.40474 9.46031
head 8.19727 0.264802 1.79222
rclavicle -1.90833e-014 9.54166e-015
rhumerus -28.553 -24.2128 1.91255
rradius 29.2004
rwrist 9.81496
rhand -27.2193 -13.2573
rfingers 7.12502
rthumb -0.631909 -43.2361
lclavicle -1.90833e-014 9.54166e-015
lhumerus -17.9456 32.8999 33.6331
lradius 28.7417
lwrist 5.77199
lhand -21.683 -0.0358907
lfingers 7.12502
lthumb 4.71483 29.8916
rfemur -19.1366 -6.90316 16.9297
rtibia 28.7882
rfoot -2.29839 -13.7576
rtoes -9.96136
lfemur -13.1796 2.01209 -5.6827
ltibia 32.6818
lfoot -15.8965 8.03558
ltoes -13.0201
